Coordinates
version=1
nRows=19
nColumns=34
inDegrees=yes

Units are S.I. units (second, meters, Newtons, ...)
If the header above contains a line with 'inDegrees', this indicates whether rotational values are in degrees (yes) or radians (no).

endheader
time	pelvis_tilt	pelvis_list	pelvis_rotation	pelvis_tx	pelvis_ty	pelvis_tz	hip_flexion_r	hip_adduction_r	hip_rotation_r	knee_angle_r	ankle_angle_r	subtalar_angle_r	mtp_angle_r	hip_flexion_l	hip_adduction_l	hip_rotation_l	knee_angle_l	ankle_angle_l	subtalar_angle_l	mtp_angle_l	lumbar_extension	lumbar_bending	lumbar_rotation	arm_flex_r	arm_add_r	arm_rot_r	elbow_flex_r	pro_sup_r	arm_flex_l	arm_add_l	arm_rot_l	elbow_flex_l	pro_sup_l
      3.43333330	    -39.27309545	      3.23656889	     -1.73950633	      1.55668026	      0.78325431	     -0.82485280	     82.68392769	     -1.08319837	      5.29412549	     77.03367642	     36.94137523	    -12.25117123	      0.00000000	     80.95455323	     -0.94200961	      1.63779442	     75.94186972	     31.87114206	    -16.51904639	      0.00000000	    -11.95327350	     -2.60876498	      1.99078944	     -9.50316484	    -40.01629478	     53.01717769	     82.78822806	     90.78736374	     -1.90473669	    -42.29348968	     65.59067594	     81.27054424	     96.35881762
      3.44166670	    -38.95195358	      3.25602673	     -1.89920154	      1.55888858	      0.78639557	     -0.82395870	     81.96209050	     -0.97155598	      5.30379695	     76.48458432	     36.75743302	    -12.20389202	      0.00000000	     80.16075439	     -1.09862771	      1.53933011	     75.37832577	     31.73672114	    -16.57334204	      0.00000000	    -11.93045167	     -2.67195316	      2.41062357	    -10.18717965	    -39.69255346	     52.30958387	     82.42478408	     90.50443533	     -1.85232742	    -42.14223137	     65.63256807	     80.93508831	     96.47935424
      3.45000000	    -38.97984792	      3.25382342	     -1.88514137	      1.55715284	      0.78837010	     -0.82490761	     81.68717721	     -1.03921301	      5.25740923	     75.97077135	     36.68717715	    -12.18416108	      0.00000000	     79.93639775	     -1.05883000	      1.52026984	     74.86251062	     31.76668136	    -16.54742459	      0.00000000	    -11.67792257	     -2.67995972	      2.45080191	    -10.33895506	    -39.69415945	     52.33382483	     82.44428286	     90.49792965	     -2.00151999	    -42.17846787	     65.69823185	     80.95352797	     96.48751675
      3.45833330	    -38.50022877	      3.31268974	     -2.04663417	      1.55941360	      0.79004144	     -0.82512181	     81.04853747	     -1.02363501	      5.30323302	     75.70898615	     35.98378476	    -12.60529046	      0.00000000	     79.06922513	     -1.10786783	      1.48240614	     74.47826080	     32.17168389	    -16.13363746	      0.00000000	    -11.65127369	     -2.75236139	      2.73606701	    -10.71310383	    -39.53456515	     51.90046199	     82.13003114	     90.27925504	     -1.82590226	    -42.11310874	     65.78388640	     80.85861411	     96.57329968
      3.46666670	    -38.41203873	      3.32270145	     -2.13440908	      1.55998277	      0.79161389	     -0.82506335	     80.78426926	     -1.05330424	      5.23427636	     75.37936765	     35.95916063	    -12.59087297	      0.00000000	     78.71465907	     -1.12497051	      1.49034781	     74.23101787	     32.12232686	    -16.07700164	      0.00000000	    -11.26470419	     -2.80144512	      2.78920374	    -10.85728196	    -39.57198918	     51.90554472	     82.13765496	     90.26659338	     -1.97908065	    -42.12364766	     65.85753246	     80.88732640	     96.58406877
      3.47500000	    -38.22526191	      3.36429338	     -2.46441202	      1.56113125	      0.79668653	     -0.82436553	     80.15353858	     -0.80450927	      5.30040399	     74.77957267	     35.56289491	    -12.51288548	      0.00000000	     78.07186550	     -1.37507346	      1.42647045	     73.61227921	     31.83138450	    -15.82010773	      0.00000000	    -11.09378463	     -2.85829196	      3.06240982	    -11.01997356	    -39.58898953	     51.82366645	     82.00825782	     90.17099347	     -1.98180437	    -42.13198078	     65.88397906	     80.98446331	     96.62597387
      3.48333330	    -38.08301842	      3.34975238	     -2.55778496	      1.56092888	      0.79797309	     -0.82410027	     79.63348043	     -0.70015104	      5.36732295	     74.31309537	     35.54984829	    -12.41748630	      0.00000000	     77.59518045	     -1.51039198	      1.36259239	     73.17151491	     31.70509352	    -15.77154900	      0.00000000	    -10.60872676	     -2.87846880	      3.10148955	    -11.10777088	    -39.62890603	     51.81374090	     81.99960003	     90.14774826	     -2.04324449	    -42.21276034	     65.89655381	     81.04798886	     96.63845595
      3.49166670	    -37.53444109	      3.38485427	     -2.64229370	      1.56132855	      0.80253410	     -0.82400995	     78.69883185	     -0.60503902	      5.52832224	     73.68026983	     35.43565606	    -12.33691648	      0.00000000	     76.70488957	     -1.60486283	      1.15467239	     72.70370446	     31.15641237	    -16.06962899	      0.00000000	    -11.20192926	     -3.07113728	      3.25963478	    -11.05731890	    -39.51227370	     51.68575161	     81.83780977	     89.98201601	     -1.72033028	    -42.47964210	     65.80300850	     81.48301296	     96.72246782
      3.50000000	    -37.55637799	      3.38009825	     -2.45449939	      1.56252336	      0.80226996	     -0.82445525	     78.46928277	     -0.77964712	      5.50711857	     73.21716794	     35.21143380	    -12.23439798	      0.00000000	     76.40152944	     -1.50806292	      1.09263028	     72.29241118	     30.83051766	    -15.94598936	      0.00000000	    -10.84399870	     -3.08092866	      3.19753230	    -11.17489850	    -39.54130717	     51.65718911	     81.89654821	     89.95049138	     -1.73011778	    -42.56383475	     65.80402194	     81.57067176	     96.74432858
      3.50833330	    -37.61261704	      3.39553646	     -2.10770008	      1.56309821	      0.80489941	     -0.82459176	     78.26298891	     -1.10276101	      5.48857402	     72.81782200	     35.14848563	    -12.25890231	      0.00000000	     76.20361197	     -1.20523526	      1.07607855	     71.84306135	     30.24294195	    -16.20058920	      0.00000000	    -10.63545698	     -3.10447082	      2.99446652	    -11.47615479	    -39.56095320	     51.45880440	     82.09371983	     89.84973935	     -1.77269025	    -42.68129156	     65.83897938	     81.73477538	     96.81263560
      3.51666670	    -37.62710865	      3.33684584	     -1.94299869	      1.56660075	      0.80976722	     -0.82549796	     77.66703986	     -1.24164472	      5.48490428	     72.22823484	     35.05554895	    -12.19547926	      0.00000000	     75.70597836	     -1.06827329	      1.08679631	     71.14914363	     29.83812183	    -16.04521266	      0.00000000	    -10.06257083	     -3.05711664	      3.02413683	    -11.73014644	    -39.58505322	     51.45165608	     82.11820838	     89.82865078	     -1.93746857	    -42.67241975	     65.87346545	     81.77232874	     96.82914353
      3.52500000	    -37.39441111	      3.18810832	     -1.62163269	      1.57001247	      0.81232124	     -0.82608803	     76.76279719	     -1.59239084	      5.30472862	     71.53931246	     35.09210131	    -12.10848002	      0.00000000	     74.93040708	     -0.74127192	      1.23469344	     70.30380692	     28.99684437	    -16.65147401	      0.00000000	    -10.07443482	     -2.79106074	      2.97742672	    -12.25587565	    -39.52128093	     50.77693177	     82.00995350	     89.60113766	     -2.01172938	    -42.38836225	     65.77122317	     81.30444560	     96.91936567
      3.53333330	    -37.24575609	      3.19116385	     -1.75671739	      1.57233913	      0.81650466	     -0.82649013	     76.14103773	     -1.58585110	      5.28916581	     70.97244064	     35.02208935	    -11.95196574	      0.00000000	     74.23462503	     -0.75230041	      1.19959272	     69.75736316	     28.83680711	    -16.47537610	      0.00000000	     -9.44559548	     -2.78402695	      3.17350688	    -12.48026980	    -39.62281841	     50.75132949	     82.05441715	     89.57648053	     -2.30871709	    -42.27140894	     65.84616316	     81.29547063	     96.93423663
      3.54166670	    -36.87486020	      3.13939359	     -2.10262676	      1.57372505	      0.82020716	     -0.82616638	     75.23313455	     -1.36700078	      5.22128557	     70.24749200	     34.87608476	    -11.58312547	      0.00000000	     73.24262563	     -1.04486093	      1.10345341	     68.98411408	     28.50919319	    -16.25887551	      0.00000000	     -9.41867819	     -2.69718058	      3.63122666	    -12.63738072	    -39.71718521	     50.63232762	     81.91657090	     89.49345397	     -2.56216203	    -41.95656052	     65.70098430	     80.92073171	     96.94446670
      3.55000000	    -36.66032510	      3.12181937	     -2.17162874	      1.57391686	      0.82291289	     -0.82557153	     74.68031551	     -1.38264062	      5.08475726	     69.72041836	     34.79484592	    -11.56939137	      0.00000000	     72.67622063	     -1.04396698	      1.15835829	     68.53076785	     28.38409466	    -16.15520853	      0.00000000	     -8.88482834	     -2.68938133	      3.74562438	    -12.71688664	    -39.72849762	     50.60748071	     81.94947873	     89.47317919	     -2.65980565	    -41.98247750	     65.61155325	     80.85850868	     96.94547013
      3.55833330	    -36.21944739	      2.92369937	     -2.26605834	      1.57518548	      0.82685810	     -0.82649506	     73.76043190	     -1.34246646	      4.80353294	     68.95833682	     34.34542920	    -11.72355920	      0.00000000	     71.85049236	     -1.20071887	      1.25598132	     68.05795634	     27.63614077	    -16.08085725	      0.00000000	     -9.10245830	     -2.50168826	      3.98208672	    -12.74505569	    -39.80848772	     50.55588897	     81.86981681	     89.40320264	     -2.65091775	    -41.77884237	     65.24093871	     80.61058386	     96.94555468
      3.56666670	    -36.20793681	      2.90163012	     -2.21388864	      1.57392383	      0.82882041	     -0.82646469	     73.53377171	     -1.40776041	      4.76411003	     68.49070173	     34.27331343	    -11.72870246	      0.00000000	     71.68147817	     -1.17038001	      1.23131549	     67.71313951	     27.61054358	    -16.09282843	      0.00000000	     -8.88560181	     -2.50771621	      4.03801088	    -12.76353780	    -39.83304572	     50.53859473	     81.90500103	     89.39827553	     -2.72520131	    -41.82198171	     65.22726872	     80.60731937	     96.94814213
      3.57500000	    -35.85314769	      2.80966289	     -2.23045628	      1.57377152	      0.83232689	     -0.82675013	     72.98951361	     -1.44379134	      4.60869436	     67.94509229	     33.10784355	    -12.50590871	      0.00000000	     71.01443620	     -1.11364023	      1.41985945	     67.03388682	     26.87988861	    -16.59585162	      0.00000000	     -9.01645397	     -2.34263660	      4.01169987	    -12.70047019	    -39.99575126	     50.35571019	     82.14035938	     89.31973028	     -2.80028890	    -41.69365853	     64.70443100	     80.51059009	     96.98833180
      3.58333330	    -35.95240695	      2.81085533	     -2.09905541	      1.57633348	      0.83686224	     -0.82670194	     72.69964265	     -1.59329668	      4.50486594	     67.27332595	     32.94582955	    -12.54559272	      0.00000000	     70.68709822	     -1.05055870	      1.35697765	     66.28643880	     26.82949941	    -16.61694150	      0.00000000	     -8.72447824	     -2.33988176	      3.96028874	    -12.83770923	    -39.94589608	     50.34295682	     82.17815898	     89.31125148	     -2.92434026	    -41.73616605	     64.65548784	     80.56119568	     96.99988287
